<?xml version="1.0" encoding="UTF-8"?>
<svg id="Calque_2" xmlns="http://www.w3.org/2000/svg" viewBox="0 0 58.62 58.62">
  <defs>
    <style>
      .cls-1 {
        fill: #120b0c;
      }
    </style>
  </defs>
  <g id="Calque_1-2" data-name="Calque_1">
    <path class="cls-1" d="M41.19,2.79c14.64,6.56,21.19,23.75,14.64,38.39-6.56,14.64-23.75,21.21-38.38,14.64C2.8,49.27-3.77,32.09,2.8,17.44,9.34,2.79,26.53-3.76,41.19,2.79ZM51.6,23.58c1.74-3.91,0-8.52-3.94-10.26-3.9-1.75-8.5,0-10.26,3.91-1.74,3.92,0,8.53,3.94,10.27,3.91,1.77,8.52,0,10.26-3.92ZM49.01,44.4c1.76-3.93-.02-8.53-3.91-10.28-3.93-1.75-8.53,0-10.3,3.93-1.73,3.92.04,8.51,3.94,10.27,3.91,1.75,8.52,0,10.28-3.92ZM32.55,15.06c1.75-3.92,0-8.52-3.91-10.28-3.92-1.75-8.52,0-10.27,3.93-1.77,3.91,0,8.52,3.91,10.26,3.91,1.77,8.51,0,10.27-3.91ZM31.56,30.32c.56-1.25,0-2.69-1.24-3.26-1.24-.56-2.68,0-3.25,1.24-.56,1.24,0,2.69,1.22,3.25,1.26.56,2.7,0,3.27-1.23ZM29.22,48.54c1.75-3.9,0-8.51-3.91-10.26-3.93-1.77-8.53,0-10.28,3.92s0,8.5,3.93,10.27c3.9,1.75,8.53,0,10.26-3.93ZM18.37,30.69c1.77-3.92,0-8.51-3.92-10.28-3.93-1.74-8.53,0-10.28,3.93-1.74,3.93,0,8.52,3.94,10.28,3.9,1.75,8.53,0,10.26-3.93Z"/>
  </g>
</svg>